<svg xmlns="http://www.w3.org/2000/svg" xmlns:xlink="http://www.w3.org/1999/xlink" width="40" zoomAndPan="magnify" viewBox="0 0 30 30.000001" height="40" preserveAspectRatio="xMidYMid meet" version="1.0"><defs><g/><clipPath id="930c27ca3b"><path d="M 9.195312 6.894531 L 20.804688 6.894531 L 20.804688 17.78125 L 9.195312 17.78125 Z M 9.195312 6.894531 " clip-rule="nonzero"/></clipPath></defs><g clip-path="url(#930c27ca3b)"><path fill="#38b6ff" d="M 13.242188 7.804688 L 13.242188 12.53125 C 14.246094 11.375 15.046875 10.464844 15.636719 9.769531 C 16.371094 8.910156 17.542969 8.871094 17.90625 9.988281 C 17.996094 10.503906 17.890625 11.042969 17.621094 11.503906 C 17.917969 10.566406 16.808594 9.949219 15.933594 10.757812 L 15.265625 11.402344 C 14.75 11.953125 14.207031 12.328125 13.679688 12.519531 C 14.300781 12.570312 14.878906 12.929688 15.417969 13.558594 L 15.714844 13.957031 C 16.617188 13.160156 17.429688 12.839844 18.164062 12.980469 C 19.050781 13.109375 19.773438 13.710938 20.054688 14.535156 C 20.3125 15.292969 20.183594 16.113281 19.683594 16.742188 C 18.949219 17.640625 17.558594 17.976562 16.460938 17.140625 C 16.101562 16.882812 15.613281 16.164062 14.980469 14.972656 C 15.265625 14.648438 15.546875 14.367188 15.820312 14.136719 C 15.832031 14.136719 15.832031 14.125 15.84375 14.125 L 16.578125 15.125 C 16.976562 15.652344 17.363281 16.035156 17.75 16.242188 C 18.34375 16.574219 19 16.511719 19.476562 16.179688 C 20.804688 15.226562 19.707031 13.300781 18.164062 13.070312 C 17.441406 12.929688 16.644531 13.25 15.753906 14.007812 C 15.484375 14.238281 15.199219 14.523438 14.917969 14.84375 C 14.867188 14.90625 14.800781 14.972656 14.75 15.035156 C 14.246094 15.5625 13.730469 15.945312 13.242188 16.191406 C 13.035156 16.28125 12.84375 16.359375 12.636719 16.410156 C 12.007812 16.574219 11.375 16.511719 10.746094 16.230469 C 9.714844 15.675781 9.199219 14.507812 9.480469 13.390625 C 9.765625 12.261719 10.78125 11.464844 11.941406 11.464844 C 11.953125 11.464844 11.96875 11.464844 11.980469 11.464844 L 11.980469 7.191406 L 11.117188 7.191406 L 11.117188 6.894531 L 13.242188 6.894531 Z M 11.980469 16.410156 L 11.980469 11.542969 L 11.96875 11.542969 C 10.835938 11.542969 9.855469 12.300781 9.585938 13.390625 C 9.300781 14.484375 9.804688 15.625 10.796875 16.152344 C 11.195312 16.320312 11.582031 16.410156 11.980469 16.410156 Z M 14.878906 14.789062 C 14.789062 14.613281 14.699219 14.429688 14.609375 14.238281 C 14.15625 13.378906 13.695312 12.890625 13.242188 12.761719 L 13.242188 16.085938 C 13.730469 15.855469 14.246094 15.472656 14.75 14.945312 C 14.789062 14.894531 14.839844 14.828125 14.878906 14.789062 Z M 14.878906 14.789062 " fill-opacity="1" fill-rule="evenodd"/></g><g fill="#38b6ff" fill-opacity="1"><g transform="translate(9.258186, 19.031754)"><g><path d="M 0.375 -0.375 L 0.21875 -0.203125 L 0.21875 0 L 0.125 0 L 0.125 -0.796875 L 0.21875 -0.796875 L 0.21875 -0.3125 L 0.6875 -0.796875 L 0.78125 -0.796875 L 0.4375 -0.4375 L 0.796875 0 L 0.703125 0 Z M 0.375 -0.375 "/></g></g></g><g fill="#38b6ff" fill-opacity="1"><g transform="translate(10.203237, 19.031754)"><g><path d="M 0.125 -0.796875 L 0.21875 -0.796875 L 0.21875 -0.078125 L 0.65625 -0.078125 L 0.65625 0 L 0.125 0 Z M 0.125 -0.796875 "/></g></g></g><g fill="#38b6ff" fill-opacity="1"><g transform="translate(11.008713, 19.031754)"><g><path d="M 0.625 -0.21875 L 0.1875 -0.21875 L 0.09375 0 L 0 0 L 0.375 -0.796875 L 0.453125 -0.796875 L 0.8125 0 L 0.71875 0 Z M 0.59375 -0.28125 L 0.40625 -0.703125 L 0.21875 -0.28125 Z M 0.59375 -0.28125 "/></g></g></g><g fill="#38b6ff" fill-opacity="1"><g transform="translate(11.960628, 19.031754)"><g><path d="M 0.34375 0 C 0.289062 0 0.234375 -0.00390625 0.171875 -0.015625 C 0.117188 -0.0351562 0.078125 -0.0625 0.046875 -0.09375 L 0.09375 -0.15625 C 0.113281 -0.132812 0.148438 -0.113281 0.203125 -0.09375 C 0.253906 -0.0703125 0.300781 -0.0625 0.34375 -0.0625 C 0.414062 -0.0625 0.46875 -0.0703125 0.5 -0.09375 C 0.539062 -0.125 0.5625 -0.160156 0.5625 -0.203125 C 0.5625 -0.234375 0.550781 -0.257812 0.53125 -0.28125 C 0.507812 -0.300781 0.484375 -0.316406 0.453125 -0.328125 C 0.429688 -0.335938 0.394531 -0.347656 0.34375 -0.359375 C 0.28125 -0.378906 0.234375 -0.394531 0.203125 -0.40625 C 0.171875 -0.414062 0.140625 -0.4375 0.109375 -0.46875 C 0.0859375 -0.5 0.078125 -0.539062 0.078125 -0.59375 C 0.078125 -0.625 0.0859375 -0.65625 0.109375 -0.6875 C 0.128906 -0.726562 0.160156 -0.757812 0.203125 -0.78125 C 0.242188 -0.800781 0.300781 -0.8125 0.375 -0.8125 C 0.414062 -0.8125 0.457031 -0.800781 0.5 -0.78125 C 0.539062 -0.769531 0.578125 -0.753906 0.609375 -0.734375 L 0.59375 -0.671875 C 0.550781 -0.691406 0.507812 -0.707031 0.46875 -0.71875 C 0.4375 -0.726562 0.40625 -0.734375 0.375 -0.734375 C 0.300781 -0.734375 0.242188 -0.71875 0.203125 -0.6875 C 0.171875 -0.664062 0.15625 -0.632812 0.15625 -0.59375 C 0.15625 -0.5625 0.164062 -0.535156 0.1875 -0.515625 C 0.207031 -0.492188 0.226562 -0.476562 0.25 -0.46875 C 0.28125 -0.457031 0.320312 -0.445312 0.375 -0.4375 C 0.4375 -0.414062 0.484375 -0.398438 0.515625 -0.390625 C 0.554688 -0.378906 0.585938 -0.359375 0.609375 -0.328125 C 0.628906 -0.296875 0.640625 -0.257812 0.640625 -0.21875 C 0.640625 -0.175781 0.628906 -0.132812 0.609375 -0.09375 C 0.585938 -0.0625 0.554688 -0.0351562 0.515625 -0.015625 C 0.472656 -0.00390625 0.414062 0 0.34375 0 Z M 0.34375 0 "/></g></g></g><g fill="#38b6ff" fill-opacity="1"><g transform="translate(12.795849, 19.031754)"><g><path d="M 0.34375 0 C 0.289062 0 0.234375 -0.00390625 0.171875 -0.015625 C 0.117188 -0.0351562 0.078125 -0.0625 0.046875 -0.09375 L 0.09375 -0.15625 C 0.113281 -0.132812 0.148438 -0.113281 0.203125 -0.09375 C 0.253906 -0.0703125 0.300781 -0.0625 0.34375 -0.0625 C 0.414062 -0.0625 0.46875 -0.0703125 0.5 -0.09375 C 0.539062 -0.125 0.5625 -0.160156 0.5625 -0.203125 C 0.5625 -0.234375 0.550781 -0.257812 0.53125 -0.28125 C 0.507812 -0.300781 0.484375 -0.316406 0.453125 -0.328125 C 0.429688 -0.335938 0.394531 -0.347656 0.34375 -0.359375 C 0.28125 -0.378906 0.234375 -0.394531 0.203125 -0.40625 C 0.171875 -0.414062 0.140625 -0.4375 0.109375 -0.46875 C 0.0859375 -0.5 0.078125 -0.539062 0.078125 -0.59375 C 0.078125 -0.625 0.0859375 -0.65625 0.109375 -0.6875 C 0.128906 -0.726562 0.160156 -0.757812 0.203125 -0.78125 C 0.242188 -0.800781 0.300781 -0.8125 0.375 -0.8125 C 0.414062 -0.8125 0.457031 -0.800781 0.5 -0.78125 C 0.539062 -0.769531 0.578125 -0.753906 0.609375 -0.734375 L 0.59375 -0.671875 C 0.550781 -0.691406 0.507812 -0.707031 0.46875 -0.71875 C 0.4375 -0.726562 0.40625 -0.734375 0.375 -0.734375 C 0.300781 -0.734375 0.242188 -0.71875 0.203125 -0.6875 C 0.171875 -0.664062 0.15625 -0.632812 0.15625 -0.59375 C 0.15625 -0.5625 0.164062 -0.535156 0.1875 -0.515625 C 0.207031 -0.492188 0.226562 -0.476562 0.25 -0.46875 C 0.28125 -0.457031 0.320312 -0.445312 0.375 -0.4375 C 0.4375 -0.414062 0.484375 -0.398438 0.515625 -0.390625 C 0.554688 -0.378906 0.585938 -0.359375 0.609375 -0.328125 C 0.628906 -0.296875 0.640625 -0.257812 0.640625 -0.21875 C 0.640625 -0.175781 0.628906 -0.132812 0.609375 -0.09375 C 0.585938 -0.0625 0.554688 -0.0351562 0.515625 -0.015625 C 0.472656 -0.00390625 0.414062 0 0.34375 0 Z M 0.34375 0 "/></g></g></g><g fill="#38b6ff" fill-opacity="1"><g transform="translate(13.631071, 19.031754)"><g/></g></g><g fill="#38b6ff" fill-opacity="1"><g transform="translate(14.062442, 19.031754)"><g><path d="M 0.484375 0 C 0.398438 0 0.328125 -0.015625 0.265625 -0.046875 C 0.203125 -0.078125 0.148438 -0.125 0.109375 -0.1875 C 0.078125 -0.25 0.0625 -0.320312 0.0625 -0.40625 C 0.0625 -0.476562 0.078125 -0.546875 0.109375 -0.609375 C 0.148438 -0.671875 0.203125 -0.71875 0.265625 -0.75 C 0.328125 -0.789062 0.398438 -0.8125 0.484375 -0.8125 C 0.535156 -0.8125 0.585938 -0.800781 0.640625 -0.78125 C 0.691406 -0.757812 0.734375 -0.726562 0.765625 -0.6875 L 0.71875 -0.640625 C 0.65625 -0.703125 0.578125 -0.734375 0.484375 -0.734375 C 0.421875 -0.734375 0.363281 -0.71875 0.3125 -0.6875 C 0.257812 -0.65625 0.21875 -0.613281 0.1875 -0.5625 C 0.15625 -0.519531 0.140625 -0.46875 0.140625 -0.40625 C 0.140625 -0.34375 0.15625 -0.285156 0.1875 -0.234375 C 0.21875 -0.179688 0.257812 -0.140625 0.3125 -0.109375 C 0.363281 -0.078125 0.421875 -0.0625 0.484375 -0.0625 C 0.578125 -0.0625 0.65625 -0.0976562 0.71875 -0.171875 L 0.765625 -0.109375 C 0.734375 -0.0664062 0.691406 -0.0351562 0.640625 -0.015625 C 0.585938 -0.00390625 0.535156 0 0.484375 0 Z M 0.484375 0 "/></g></g></g><g fill="#38b6ff" fill-opacity="1"><g transform="translate(15.016645, 19.031754)"><g><path d="M 0.484375 0 C 0.398438 0 0.328125 -0.015625 0.265625 -0.046875 C 0.203125 -0.078125 0.148438 -0.125 0.109375 -0.1875 C 0.078125 -0.25 0.0625 -0.320312 0.0625 -0.40625 C 0.0625 -0.476562 0.078125 -0.546875 0.109375 -0.609375 C 0.148438 -0.671875 0.203125 -0.71875 0.265625 -0.75 C 0.328125 -0.789062 0.398438 -0.8125 0.484375 -0.8125 C 0.554688 -0.8125 0.625 -0.789062 0.6875 -0.75 C 0.75 -0.71875 0.796875 -0.671875 0.828125 -0.609375 C 0.867188 -0.546875 0.890625 -0.476562 0.890625 -0.40625 C 0.890625 -0.320312 0.867188 -0.25 0.828125 -0.1875 C 0.796875 -0.125 0.75 -0.078125 0.6875 -0.046875 C 0.625 -0.015625 0.554688 0 0.484375 0 Z M 0.484375 -0.0625 C 0.546875 -0.0625 0.597656 -0.078125 0.640625 -0.109375 C 0.691406 -0.140625 0.734375 -0.179688 0.765625 -0.234375 C 0.796875 -0.285156 0.8125 -0.34375 0.8125 -0.40625 C 0.8125 -0.46875 0.796875 -0.519531 0.765625 -0.5625 C 0.734375 -0.613281 0.691406 -0.65625 0.640625 -0.6875 C 0.597656 -0.71875 0.546875 -0.734375 0.484375 -0.734375 C 0.421875 -0.734375 0.363281 -0.71875 0.3125 -0.6875 C 0.257812 -0.65625 0.21875 -0.613281 0.1875 -0.5625 C 0.15625 -0.519531 0.140625 -0.46875 0.140625 -0.40625 C 0.140625 -0.34375 0.15625 -0.285156 0.1875 -0.234375 C 0.21875 -0.179688 0.257812 -0.140625 0.3125 -0.109375 C 0.363281 -0.078125 0.421875 -0.0625 0.484375 -0.0625 Z M 0.484375 -0.0625 "/></g></g></g><g fill="#38b6ff" fill-opacity="1"><g transform="translate(16.108135, 19.031754)"><g><path d="M 0.796875 -0.796875 L 0.796875 0 L 0.734375 0 L 0.21875 -0.640625 L 0.21875 0 L 0.125 0 L 0.125 -0.796875 L 0.203125 -0.796875 L 0.71875 -0.15625 L 0.71875 -0.796875 Z M 0.796875 -0.796875 "/></g></g></g><g fill="#38b6ff" fill-opacity="1"><g transform="translate(17.169879, 19.031754)"><g><path d="M 0.796875 -0.796875 L 0.796875 0 L 0.734375 0 L 0.21875 -0.640625 L 0.21875 0 L 0.125 0 L 0.125 -0.796875 L 0.203125 -0.796875 L 0.71875 -0.15625 L 0.71875 -0.796875 Z M 0.796875 -0.796875 "/></g></g></g><g fill="#38b6ff" fill-opacity="1"><g transform="translate(18.231624, 19.031754)"><g><path d="M 0.6875 -0.078125 L 0.6875 0 L 0.125 0 L 0.125 -0.796875 L 0.671875 -0.796875 L 0.671875 -0.71875 L 0.21875 -0.71875 L 0.21875 -0.4375 L 0.625 -0.4375 L 0.625 -0.375 L 0.21875 -0.375 L 0.21875 -0.078125 Z M 0.6875 -0.078125 "/></g></g></g><g fill="#38b6ff" fill-opacity="1"><g transform="translate(19.128625, 19.031754)"><g><path d="M 0.484375 0 C 0.398438 0 0.328125 -0.015625 0.265625 -0.046875 C 0.203125 -0.078125 0.148438 -0.125 0.109375 -0.1875 C 0.078125 -0.25 0.0625 -0.320312 0.0625 -0.40625 C 0.0625 -0.476562 0.078125 -0.546875 0.109375 -0.609375 C 0.148438 -0.671875 0.203125 -0.71875 0.265625 -0.75 C 0.328125 -0.789062 0.398438 -0.8125 0.484375 -0.8125 C 0.535156 -0.8125 0.585938 -0.800781 0.640625 -0.78125 C 0.691406 -0.757812 0.734375 -0.726562 0.765625 -0.6875 L 0.71875 -0.640625 C 0.65625 -0.703125 0.578125 -0.734375 0.484375 -0.734375 C 0.421875 -0.734375 0.363281 -0.71875 0.3125 -0.6875 C 0.257812 -0.65625 0.21875 -0.613281 0.1875 -0.5625 C 0.15625 -0.519531 0.140625 -0.46875 0.140625 -0.40625 C 0.140625 -0.34375 0.15625 -0.285156 0.1875 -0.234375 C 0.21875 -0.179688 0.257812 -0.140625 0.3125 -0.109375 C 0.363281 -0.078125 0.421875 -0.0625 0.484375 -0.0625 C 0.578125 -0.0625 0.65625 -0.0976562 0.71875 -0.171875 L 0.765625 -0.109375 C 0.734375 -0.0664062 0.691406 -0.0351562 0.640625 -0.015625 C 0.585938 -0.00390625 0.535156 0 0.484375 0 Z M 0.484375 0 "/></g></g></g><g fill="#38b6ff" fill-opacity="1"><g transform="translate(20.082828, 19.031754)"><g><path d="M 0.28125 -0.71875 L 0 -0.71875 L 0 -0.796875 L 0.65625 -0.796875 L 0.65625 -0.71875 L 0.375 -0.71875 L 0.375 0 L 0.28125 0 Z M 0.28125 -0.71875 "/></g></g></g></svg>