<svg xmlns="http://www.w3.org/2000/svg" xmlns:xlink="http://www.w3.org/1999/xlink" width="500" zoomAndPan="magnify" viewBox="0 0 375 374.999991" height="500" preserveAspectRatio="xMidYMid meet" version="1.0"><defs><g/><clipPath id="a75ed6c2e9"><path d="M 115 89.054688 L 255 89.054688 L 255 228 L 115 228 Z M 115 89.054688 " clip-rule="nonzero"/></clipPath></defs><g clip-path="url(#a75ed6c2e9)"><path fill="#38b6ff" d="M 164.785156 100.847656 L 164.785156 161.933594 C 177.769531 146.992188 188.09375 135.207031 195.753906 126.246094 C 205.238281 115.128906 220.394531 114.628906 225.050781 129.066406 C 226.21875 135.707031 224.886719 142.679688 221.390625 148.652344 C 225.222656 136.539062 210.902344 128.570312 199.582031 139.027344 L 190.925781 147.324219 C 184.265625 154.460938 177.273438 159.28125 170.445312 161.765625 C 178.4375 162.429688 185.929688 167.074219 192.921875 175.207031 L 196.75 180.355469 C 208.40625 170.066406 218.894531 165.914062 228.382812 167.742188 C 239.871094 169.402344 249.199219 177.203125 252.859375 187.828125 C 256.1875 197.617188 254.519531 208.242188 248.03125 216.375 C 238.539062 227.992188 220.558594 232.308594 206.40625 221.519531 C 201.75 218.199219 195.417969 208.90625 187.265625 193.46875 C 190.925781 189.316406 194.589844 185.664062 198.085938 182.679688 C 198.25 182.679688 198.25 182.515625 198.414062 182.515625 L 207.90625 195.457031 C 213.066406 202.265625 218.0625 207.246094 223.054688 209.902344 C 230.714844 214.210938 239.207031 213.386719 245.363281 209.070312 C 262.515625 196.789062 248.363281 171.890625 228.382812 168.902344 C 219.058594 167.074219 208.738281 171.226562 197.25 181.019531 C 193.753906 184.003906 190.089844 187.660156 186.429688 191.808594 C 185.761719 192.636719 184.933594 193.46875 184.265625 194.296875 C 177.769531 201.105469 171.109375 206.082031 164.785156 209.238281 C 162.121094 210.398438 159.625 211.390625 156.960938 212.058594 C 148.800781 214.210938 140.644531 213.386719 132.488281 209.730469 C 119.167969 202.59375 112.507812 187.492188 116.171875 173.050781 C 119.835938 158.449219 132.984375 148.15625 147.96875 148.15625 C 148.136719 148.15625 148.300781 148.15625 148.46875 148.15625 L 148.46875 92.886719 L 137.316406 92.886719 L 137.316406 89.066406 L 164.785156 89.066406 Z M 148.46875 212.058594 L 148.46875 149.152344 L 148.300781 149.152344 C 133.652344 149.152344 121 158.945312 117.503906 173.050781 C 113.839844 187.160156 120.332031 201.933594 133.152344 208.734375 C 138.3125 210.898438 143.308594 212.058594 148.46875 212.058594 Z M 185.929688 191.140625 C 184.765625 188.820312 183.597656 186.496094 182.433594 184.003906 C 176.605469 172.886719 170.613281 166.582031 164.785156 164.921875 L 164.785156 207.90625 C 171.109375 204.921875 177.769531 199.9375 184.265625 193.136719 C 184.765625 192.472656 185.425781 191.640625 185.929688 191.140625 Z M 185.929688 191.140625 " fill-opacity="1" fill-rule="evenodd"/></g><g fill="#38b6ff" fill-opacity="1"><g transform="translate(113.334922, 245.826795)"><g><path d="M 4.890625 -4.859375 L 2.78125 -2.71875 L 2.78125 0 L 1.6875 0 L 1.6875 -10.34375 L 2.78125 -10.34375 L 2.78125 -4.09375 L 8.859375 -10.34375 L 10.109375 -10.34375 L 5.625 -5.65625 L 10.421875 0 L 9.125 0 Z M 4.890625 -4.859375 "/></g></g></g><g fill="#38b6ff" fill-opacity="1"><g transform="translate(125.54183, 245.826795)"><g><path d="M 1.6875 -10.34375 L 2.78125 -10.34375 L 2.78125 -0.953125 L 8.578125 -0.953125 L 8.578125 0 L 1.6875 0 Z M 1.6875 -10.34375 "/></g></g></g><g fill="#38b6ff" fill-opacity="1"><g transform="translate(135.945894, 245.826795)"><g><path d="M 8.171875 -2.765625 L 2.40625 -2.765625 L 1.171875 0 L 0.03125 0 L 4.765625 -10.34375 L 5.84375 -10.34375 L 10.5625 0 L 9.421875 0 Z M 7.78125 -3.65625 L 5.296875 -9.203125 L 2.8125 -3.65625 Z M 7.78125 -3.65625 "/></g></g></g><g fill="#38b6ff" fill-opacity="1"><g transform="translate(148.24146, 245.826795)"><g><path d="M 4.53125 0.09375 C 3.769531 0.09375 3.035156 -0.03125 2.328125 -0.28125 C 1.617188 -0.53125 1.070312 -0.851562 0.6875 -1.25 L 1.125 -2.09375 C 1.5 -1.71875 1.992188 -1.414062 2.609375 -1.1875 C 3.234375 -0.957031 3.875 -0.84375 4.53125 -0.84375 C 5.457031 -0.84375 6.148438 -1.007812 6.609375 -1.34375 C 7.078125 -1.6875 7.3125 -2.128906 7.3125 -2.671875 C 7.3125 -3.085938 7.1875 -3.414062 6.9375 -3.65625 C 6.6875 -3.90625 6.378906 -4.097656 6.015625 -4.234375 C 5.648438 -4.367188 5.144531 -4.515625 4.5 -4.671875 C 3.71875 -4.867188 3.09375 -5.054688 2.625 -5.234375 C 2.164062 -5.421875 1.769531 -5.703125 1.4375 -6.078125 C 1.113281 -6.453125 0.953125 -6.957031 0.953125 -7.59375 C 0.953125 -8.113281 1.085938 -8.585938 1.359375 -9.015625 C 1.640625 -9.453125 2.0625 -9.796875 2.625 -10.046875 C 3.195312 -10.304688 3.910156 -10.4375 4.765625 -10.4375 C 5.347656 -10.4375 5.921875 -10.351562 6.484375 -10.1875 C 7.054688 -10.03125 7.550781 -9.804688 7.96875 -9.515625 L 7.59375 -8.640625 C 7.164062 -8.929688 6.703125 -9.144531 6.203125 -9.28125 C 5.710938 -9.425781 5.234375 -9.5 4.765625 -9.5 C 3.859375 -9.5 3.175781 -9.320312 2.71875 -8.96875 C 2.257812 -8.625 2.03125 -8.175781 2.03125 -7.625 C 2.03125 -7.207031 2.15625 -6.875 2.40625 -6.625 C 2.65625 -6.375 2.96875 -6.179688 3.34375 -6.046875 C 3.726562 -5.921875 4.238281 -5.773438 4.875 -5.609375 C 5.632812 -5.429688 6.25 -5.25 6.71875 -5.0625 C 7.1875 -4.882812 7.582031 -4.609375 7.90625 -4.234375 C 8.226562 -3.867188 8.390625 -3.367188 8.390625 -2.734375 C 8.390625 -2.210938 8.25 -1.738281 7.96875 -1.3125 C 7.6875 -0.882812 7.253906 -0.539062 6.671875 -0.28125 C 6.097656 -0.03125 5.382812 0.09375 4.53125 0.09375 Z M 4.53125 0.09375 "/></g></g></g><g fill="#38b6ff" fill-opacity="1"><g transform="translate(159.029736, 245.826795)"><g><path d="M 4.53125 0.09375 C 3.769531 0.09375 3.035156 -0.03125 2.328125 -0.28125 C 1.617188 -0.53125 1.070312 -0.851562 0.6875 -1.25 L 1.125 -2.09375 C 1.5 -1.71875 1.992188 -1.414062 2.609375 -1.1875 C 3.234375 -0.957031 3.875 -0.84375 4.53125 -0.84375 C 5.457031 -0.84375 6.148438 -1.007812 6.609375 -1.34375 C 7.078125 -1.6875 7.3125 -2.128906 7.3125 -2.671875 C 7.3125 -3.085938 7.1875 -3.414062 6.9375 -3.65625 C 6.6875 -3.90625 6.378906 -4.097656 6.015625 -4.234375 C 5.648438 -4.367188 5.144531 -4.515625 4.5 -4.671875 C 3.71875 -4.867188 3.09375 -5.054688 2.625 -5.234375 C 2.164062 -5.421875 1.769531 -5.703125 1.4375 -6.078125 C 1.113281 -6.453125 0.953125 -6.957031 0.953125 -7.59375 C 0.953125 -8.113281 1.085938 -8.585938 1.359375 -9.015625 C 1.640625 -9.453125 2.0625 -9.796875 2.625 -10.046875 C 3.195312 -10.304688 3.910156 -10.4375 4.765625 -10.4375 C 5.347656 -10.4375 5.921875 -10.351562 6.484375 -10.1875 C 7.054688 -10.03125 7.550781 -9.804688 7.96875 -9.515625 L 7.59375 -8.640625 C 7.164062 -8.929688 6.703125 -9.144531 6.203125 -9.28125 C 5.710938 -9.425781 5.234375 -9.5 4.765625 -9.5 C 3.859375 -9.5 3.175781 -9.320312 2.71875 -8.96875 C 2.257812 -8.625 2.03125 -8.175781 2.03125 -7.625 C 2.03125 -7.207031 2.15625 -6.875 2.40625 -6.625 C 2.65625 -6.375 2.96875 -6.179688 3.34375 -6.046875 C 3.726562 -5.921875 4.238281 -5.773438 4.875 -5.609375 C 5.632812 -5.429688 6.25 -5.25 6.71875 -5.0625 C 7.1875 -4.882812 7.582031 -4.609375 7.90625 -4.234375 C 8.226562 -3.867188 8.390625 -3.367188 8.390625 -2.734375 C 8.390625 -2.210938 8.25 -1.738281 7.96875 -1.3125 C 7.6875 -0.882812 7.253906 -0.539062 6.671875 -0.28125 C 6.097656 -0.03125 5.382812 0.09375 4.53125 0.09375 Z M 4.53125 0.09375 "/></g></g></g><g fill="#38b6ff" fill-opacity="1"><g transform="translate(169.818011, 245.826795)"><g/></g></g><g fill="#38b6ff" fill-opacity="1"><g transform="translate(175.389888, 245.826795)"><g><path d="M 6.171875 0.09375 C 5.148438 0.09375 4.226562 -0.128906 3.40625 -0.578125 C 2.582031 -1.035156 1.9375 -1.664062 1.46875 -2.46875 C 1 -3.28125 0.765625 -4.179688 0.765625 -5.171875 C 0.765625 -6.171875 1 -7.070312 1.46875 -7.875 C 1.9375 -8.675781 2.582031 -9.300781 3.40625 -9.75 C 4.238281 -10.207031 5.164062 -10.4375 6.1875 -10.4375 C 6.957031 -10.4375 7.664062 -10.304688 8.3125 -10.046875 C 8.96875 -9.796875 9.523438 -9.421875 9.984375 -8.921875 L 9.28125 -8.234375 C 8.476562 -9.046875 7.457031 -9.453125 6.21875 -9.453125 C 5.40625 -9.453125 4.660156 -9.265625 3.984375 -8.890625 C 3.316406 -8.523438 2.789062 -8.015625 2.40625 -7.359375 C 2.03125 -6.710938 1.84375 -5.984375 1.84375 -5.171875 C 1.84375 -4.367188 2.03125 -3.640625 2.40625 -2.984375 C 2.789062 -2.335938 3.316406 -1.828125 3.984375 -1.453125 C 4.660156 -1.078125 5.40625 -0.890625 6.21875 -0.890625 C 7.457031 -0.890625 8.476562 -1.300781 9.28125 -2.125 L 9.984375 -1.4375 C 9.523438 -0.9375 8.96875 -0.554688 8.3125 -0.296875 C 7.65625 -0.0351562 6.941406 0.09375 6.171875 0.09375 Z M 6.171875 0.09375 "/></g></g></g><g fill="#38b6ff" fill-opacity="1"><g transform="translate(187.715013, 245.826795)"><g><path d="M 6.203125 0.09375 C 5.179688 0.09375 4.253906 -0.132812 3.421875 -0.59375 C 2.585938 -1.050781 1.9375 -1.679688 1.46875 -2.484375 C 1 -3.285156 0.765625 -4.179688 0.765625 -5.171875 C 0.765625 -6.171875 1 -7.066406 1.46875 -7.859375 C 1.9375 -8.660156 2.585938 -9.289062 3.421875 -9.75 C 4.253906 -10.207031 5.179688 -10.4375 6.203125 -10.4375 C 7.234375 -10.4375 8.160156 -10.207031 8.984375 -9.75 C 9.804688 -9.300781 10.453125 -8.675781 10.921875 -7.875 C 11.398438 -7.070312 11.640625 -6.171875 11.640625 -5.171875 C 11.640625 -4.179688 11.398438 -3.28125 10.921875 -2.46875 C 10.453125 -1.664062 9.804688 -1.035156 8.984375 -0.578125 C 8.160156 -0.128906 7.234375 0.09375 6.203125 0.09375 Z M 6.203125 -0.890625 C 7.023438 -0.890625 7.765625 -1.070312 8.421875 -1.4375 C 9.085938 -1.8125 9.601562 -2.328125 9.96875 -2.984375 C 10.34375 -3.640625 10.53125 -4.367188 10.53125 -5.171875 C 10.53125 -5.984375 10.34375 -6.710938 9.96875 -7.359375 C 9.601562 -8.015625 9.085938 -8.523438 8.421875 -8.890625 C 7.765625 -9.265625 7.023438 -9.453125 6.203125 -9.453125 C 5.390625 -9.453125 4.648438 -9.265625 3.984375 -8.890625 C 3.316406 -8.523438 2.789062 -8.015625 2.40625 -7.359375 C 2.03125 -6.710938 1.84375 -5.984375 1.84375 -5.171875 C 1.84375 -4.367188 2.03125 -3.640625 2.40625 -2.984375 C 2.789062 -2.328125 3.316406 -1.8125 3.984375 -1.4375 C 4.648438 -1.070312 5.390625 -0.890625 6.203125 -0.890625 Z M 6.203125 -0.890625 "/></g></g></g><g fill="#38b6ff" fill-opacity="1"><g transform="translate(201.813424, 245.826795)"><g><path d="M 10.328125 -10.34375 L 10.328125 0 L 9.4375 0 L 2.78125 -8.390625 L 2.78125 0 L 1.6875 0 L 1.6875 -10.34375 L 2.59375 -10.34375 L 9.25 -1.953125 L 9.25 -10.34375 Z M 10.328125 -10.34375 "/></g></g></g><g fill="#38b6ff" fill-opacity="1"><g transform="translate(215.527622, 245.826795)"><g><path d="M 10.328125 -10.34375 L 10.328125 0 L 9.4375 0 L 2.78125 -8.390625 L 2.78125 0 L 1.6875 0 L 1.6875 -10.34375 L 2.59375 -10.34375 L 9.25 -1.953125 L 9.25 -10.34375 Z M 10.328125 -10.34375 "/></g></g></g><g fill="#38b6ff" fill-opacity="1"><g transform="translate(229.241821, 245.826795)"><g><path d="M 9 -0.953125 L 9 0 L 1.6875 0 L 1.6875 -10.34375 L 8.78125 -10.34375 L 8.78125 -9.40625 L 2.78125 -9.40625 L 2.78125 -5.71875 L 8.125 -5.71875 L 8.125 -4.796875 L 2.78125 -4.796875 L 2.78125 -0.953125 Z M 9 -0.953125 "/></g></g></g><g fill="#38b6ff" fill-opacity="1"><g transform="translate(240.828082, 245.826795)"><g><path d="M 6.171875 0.09375 C 5.148438 0.09375 4.226562 -0.128906 3.40625 -0.578125 C 2.582031 -1.035156 1.9375 -1.664062 1.46875 -2.46875 C 1 -3.28125 0.765625 -4.179688 0.765625 -5.171875 C 0.765625 -6.171875 1 -7.070312 1.46875 -7.875 C 1.9375 -8.675781 2.582031 -9.300781 3.40625 -9.75 C 4.238281 -10.207031 5.164062 -10.4375 6.1875 -10.4375 C 6.957031 -10.4375 7.664062 -10.304688 8.3125 -10.046875 C 8.96875 -9.796875 9.523438 -9.421875 9.984375 -8.921875 L 9.28125 -8.234375 C 8.476562 -9.046875 7.457031 -9.453125 6.21875 -9.453125 C 5.40625 -9.453125 4.660156 -9.265625 3.984375 -8.890625 C 3.316406 -8.523438 2.789062 -8.015625 2.40625 -7.359375 C 2.03125 -6.710938 1.84375 -5.984375 1.84375 -5.171875 C 1.84375 -4.367188 2.03125 -3.640625 2.40625 -2.984375 C 2.789062 -2.335938 3.316406 -1.828125 3.984375 -1.453125 C 4.660156 -1.078125 5.40625 -0.890625 6.21875 -0.890625 C 7.457031 -0.890625 8.476562 -1.300781 9.28125 -2.125 L 9.984375 -1.4375 C 9.523438 -0.9375 8.96875 -0.554688 8.3125 -0.296875 C 7.65625 -0.0351562 6.941406 0.09375 6.171875 0.09375 Z M 6.171875 0.09375 "/></g></g></g><g fill="#38b6ff" fill-opacity="1"><g transform="translate(253.153208, 245.826795)"><g><path d="M 3.6875 -9.40625 L 0.0625 -9.40625 L 0.0625 -10.34375 L 8.421875 -10.34375 L 8.421875 -9.40625 L 4.796875 -9.40625 L 4.796875 0 L 3.6875 0 Z M 3.6875 -9.40625 "/></g></g></g></svg>